<svg width="1197" height="847" viewBox="0 0 1197 847" fill="none" xmlns="http://www.w3.org/2000/svg">
<rect width="1197" height="847" fill="white"/>
<g filter="url(#filter0_bd_11_4)">
<g filter="url(#filter1_b_11_4)">
<path d="M77.3277 151.391C72.9233 146.522 73.3003 139.004 78.1696 134.599L101.939 113.1C108.432 107.227 118.456 107.73 124.328 114.222L130.849 121.432L95.3237 153.565C90.4544 157.969 82.9366 157.592 78.5322 152.723L77.3277 151.391Z" fill="#FF9D00"/>
</g>
<g filter="url(#filter2_b_11_4)">
<path d="M161.715 106.517C166.339 111.143 166.338 118.642 161.712 123.266L137.633 147.337C131.442 153.526 121.406 153.525 115.217 147.333L109.677 141.791L144.966 106.514C149.592 101.89 157.09 101.891 161.715 106.517Z" fill="#48C3E5"/>
</g>
</g>
<path d="M139.04 111.416C141.33 113.822 143.124 116.655 144.318 119.753C145.513 122.852 146.086 126.156 146.004 129.476C145.923 132.796 145.188 136.067 143.842 139.103C142.495 142.139 140.564 144.88 138.159 147.17C135.754 149.46 132.921 151.253 129.822 152.448C126.723 153.643 123.42 154.216 120.1 154.134C116.78 154.052 113.508 153.317 110.472 151.971C107.436 150.625 104.695 148.694 102.405 146.289L120.723 128.853L139.04 111.416Z" fill="#CCDDCC"/>
<path d="M102.823 146.727C100.533 144.322 98.7394 141.489 97.5445 138.39C96.3496 135.292 95.7767 131.988 95.8585 128.668C95.9403 125.348 96.6753 122.076 98.0214 119.04C99.3675 116.004 101.298 113.263 103.704 110.974C106.109 108.684 108.942 106.89 112.041 105.695C115.14 104.5 118.443 103.928 121.763 104.009C125.083 104.091 128.355 104.826 131.391 106.172C134.427 107.518 137.168 109.449 139.458 111.855L121.14 129.291L102.823 146.727Z" fill="#CCDDCC"/>
<path d="M139.04 111.416C141.33 113.822 143.124 116.655 144.318 119.753C145.513 122.852 146.086 126.156 146.004 129.476C145.923 132.796 145.188 136.067 143.842 139.103C142.495 142.139 140.564 144.88 138.159 147.17C135.754 149.46 132.921 151.253 129.822 152.448C126.723 153.643 123.42 154.216 120.1 154.134C116.78 154.052 113.508 153.317 110.472 151.971C107.436 150.625 104.695 148.694 102.405 146.289L120.723 128.853L139.04 111.416Z" fill="#2A8BEA"/>
<path d="M102.823 146.727C100.533 144.322 98.7394 141.489 97.5445 138.39C96.3496 135.292 95.7767 131.988 95.8585 128.668C95.9403 125.348 96.6753 122.076 98.0214 119.04C99.3675 116.004 101.298 113.263 103.704 110.974C106.109 108.684 108.942 106.89 112.041 105.695C115.14 104.5 118.443 103.928 121.763 104.009C125.083 104.091 128.355 104.826 131.391 106.172C134.427 107.518 137.168 109.449 139.458 111.855L121.14 129.291L102.823 146.727Z" fill="#A31E23"/>
<path d="M189.322 128.642H188.4L187.755 126.476C187.724 126.353 187.678 126.199 187.617 126.015C186.664 123.034 185.082 121.544 182.869 121.544H175.495V133.067H184.989V134.403H175.495V146.802H182.869C183.392 146.802 183.883 146.725 184.344 146.571C185.85 146.049 186.987 144.482 187.755 141.87L188.4 139.704H189.322L189.091 148H167.844V146.802H171.531V121.544H167.844V120.346H189.091L189.322 128.642ZM206.421 148.23H205.868C205.377 148.23 204.977 148.138 204.67 147.954C204.178 147.677 203.595 146.633 202.919 144.82L194.161 121.544H191.396V120.346H201.812V121.544H198.125L206.467 143.299L214.165 121.544H210.477V120.346H218.221V121.544H215.916L206.421 148.23ZM241.542 128.642H240.62L239.975 126.476C239.944 126.353 239.898 126.199 239.837 126.015C238.884 123.034 237.302 121.544 235.09 121.544H227.715V133.067H237.21V134.403H227.715V146.802H235.09C235.612 146.802 236.104 146.725 236.564 146.571C238.07 146.049 239.207 144.482 239.975 141.87L240.62 139.704H241.542L241.312 148H220.064V146.802H223.751V121.544H220.064V120.346H241.312L241.542 128.642ZM264.772 121.544V120.346H274.22V121.544H270.533V147.77L268.413 148.23L250.299 125.462V146.802H253.019C253.172 146.802 253.326 146.817 253.48 146.848C253.971 146.94 254.217 147.324 254.217 148H244.769V146.802H248.456V121.544H244.769V120.346H251.175L268.689 142.193V121.544H264.772ZM294.131 148H281.457V146.802H285.835V121.544H283.346C280.98 121.728 279.306 123.326 278.322 126.338L277.585 129.426H276.294L276.525 120.346H299.293L299.524 129.426H298.233L297.496 126.338C297.465 126.276 297.45 126.184 297.45 126.061C296.62 123.05 294.961 121.544 292.472 121.544H289.799V146.802H292.933C293.087 146.802 293.24 146.817 293.394 146.848C293.886 146.94 294.131 147.324 294.131 148ZM311.554 124.77C311.554 126.03 312.076 127.705 313.121 129.794C314.257 129.487 315.256 129.011 316.116 128.365C317.622 127.229 318.375 125.938 318.375 124.494C318.375 124.033 318.298 123.572 318.144 123.111C317.653 121.728 316.593 121.037 314.964 121.037C314.565 121.037 314.181 121.099 313.812 121.221C312.306 121.713 311.554 122.896 311.554 124.77ZM313.535 147.078C315.809 147.078 317.837 146.341 319.619 144.866C315.686 140.226 312.69 135.97 310.632 132.099C310.171 132.252 309.71 132.483 309.249 132.79C307.528 134.019 306.668 135.986 306.668 138.69C306.668 139.857 306.791 140.933 307.037 141.916C307.928 145.357 310.094 147.078 313.535 147.078ZM325.381 133.297C325.381 137.169 324.505 140.457 322.753 143.161C324.198 144.789 325.288 146.003 326.026 146.802H327.731C327.885 146.802 328.023 146.817 328.146 146.848C328.638 146.909 328.884 147.293 328.884 148H322.385C321.494 147.047 320.818 146.295 320.357 145.742C318.206 147.524 315.44 148.43 312.061 148.461C309.664 148.461 307.62 147.816 305.93 146.525C303.81 144.897 302.75 142.684 302.75 139.888C302.75 138.843 302.904 137.86 303.211 136.938C304.225 134.019 306.53 132.068 310.125 131.085C309.049 128.811 308.496 126.967 308.465 125.554C308.465 124.601 308.665 123.71 309.065 122.881C310.048 120.883 311.984 119.885 314.872 119.885C315.64 119.885 316.362 120.039 317.038 120.346C318.79 121.114 319.665 122.497 319.665 124.494C319.665 125.262 319.466 126.03 319.066 126.798C318.022 128.765 316.224 130.102 313.674 130.808C315.487 134.065 318.221 137.845 321.878 142.147C323.353 139.596 324.09 136.616 324.09 133.205H321.555V132.007H328.192C328.192 132.252 328.161 132.483 328.1 132.698C328.008 133.067 327.608 133.251 326.902 133.251L325.473 133.297H325.335H325.381ZM356.86 148H344.186V146.802H348.564V121.544H346.075C343.709 121.728 342.035 123.326 341.051 126.338L340.314 129.426H339.023L339.254 120.346H362.022L362.253 129.426H360.962L360.225 126.338C360.194 126.276 360.179 126.184 360.179 126.061C359.349 123.05 357.69 121.544 355.201 121.544H352.528V146.802H355.662C355.816 146.802 355.969 146.817 356.123 146.848C356.615 146.94 356.86 147.324 356.86 148ZM377.002 148H365.71V146.802H369.397V121.544H365.71V120.346H379.352C381.749 120.346 383.762 120.899 385.39 122.005C387.388 123.388 388.386 125.231 388.386 127.536C388.386 128.488 388.186 129.426 387.787 130.347C386.712 132.683 384.714 134.204 381.795 134.91L389.216 146.802H390.967C391.182 146.802 391.367 146.817 391.52 146.848C391.889 146.94 392.073 147.324 392.073 148H385.114L377.739 135.325H373.361V146.802H377.002V148ZM377.97 121.544H373.361V133.989H378.108C379.491 133.989 380.704 133.574 381.749 132.744C383.286 131.515 384.054 129.794 384.054 127.582C384.054 126.599 383.854 125.662 383.455 124.77C382.441 122.62 380.612 121.544 377.97 121.544ZM420.327 148H410.371V146.802H413.367L409.91 137.86H400.277L396.821 146.802H399.079C399.233 146.802 399.386 146.817 399.54 146.848C400.032 146.94 400.277 147.324 400.277 148H392.073V146.802H394.977L405.301 120.346H407.007L417.561 146.802H419.128C419.282 146.802 419.436 146.817 419.589 146.848C420.081 146.94 420.327 147.324 420.327 148ZM409.403 136.523L405.071 125.37L400.784 136.523H409.403ZM445.584 145.88C442.757 147.57 439.792 148.43 436.689 148.461C432.449 148.461 429.007 147.047 426.365 144.221C423.876 141.486 422.631 138.106 422.631 134.081C422.631 130.762 423.522 127.828 425.305 125.277C427.886 121.682 431.604 119.885 436.458 119.885C437.933 119.885 439.378 120.054 440.791 120.392C442.942 120.945 444.463 121.667 445.354 122.558C445.354 121.728 445.4 121.129 445.492 120.761C445.646 120.33 446.061 120.115 446.737 120.115L446.875 128.596H445.769C445.554 127.92 445.292 127.259 444.985 126.614C443.264 122.988 440.484 121.175 436.643 121.175C434.953 121.175 433.416 121.606 432.034 122.466C428.869 124.525 427.286 128.427 427.286 134.173C427.286 136.846 427.64 139.166 428.347 141.133C429.791 145.158 432.51 147.17 436.505 147.17C441.206 147.14 444.34 144.589 445.907 139.519H447.013V148.23C446.644 148.23 446.353 148.184 446.137 148.092C445.769 147.908 445.584 147.17 445.584 145.88ZM462.223 148H450.931V146.802H454.618V121.544H450.931V120.346H462.223V121.544H458.582V133.989L472.086 121.544H468.399V120.346H476.695C476.695 120.499 476.68 120.653 476.649 120.807C476.557 121.298 476.173 121.544 475.497 121.544C475.19 121.544 474.898 121.575 474.621 121.636C474.037 121.79 473.177 122.404 472.04 123.48L463.836 131.131L475.866 146.802H477.11C477.264 146.802 477.417 146.817 477.571 146.848C478.063 146.94 478.309 147.324 478.309 148H471.902L460.979 133.804L458.582 136.063V146.802H461.025C461.178 146.802 461.332 146.817 461.486 146.848C461.977 146.94 462.223 147.324 462.223 148Z" fill="black"/>
<path d="M90.1791 288.642C88.3683 289.724 86.469 290.276 84.481 290.295C81.7648 290.295 79.5603 289.39 77.8676 287.579C76.2733 285.827 75.4762 283.662 75.4762 281.084C75.4762 278.958 76.047 277.078 77.1886 275.445C78.8419 273.142 81.2235 271.99 84.3334 271.99C85.2782 271.99 86.2032 272.099 87.1086 272.315C88.4864 272.669 89.4607 273.132 90.0315 273.703C90.0315 273.171 90.061 272.788 90.1201 272.551C90.2185 272.276 90.4842 272.138 90.9172 272.138L91.0058 277.57H90.2972C90.1595 277.137 89.9922 276.714 89.7953 276.301C88.6931 273.978 86.9118 272.817 84.4515 272.817C83.3689 272.817 82.3848 273.093 81.4991 273.644C79.4718 274.962 78.4581 277.462 78.4581 281.143C78.4581 282.855 78.6845 284.341 79.1372 285.601C80.0623 288.179 81.8042 289.469 84.3629 289.469C87.3744 289.449 89.382 287.815 90.3858 284.568H91.0944V290.148C90.8582 290.148 90.6712 290.118 90.5334 290.059C90.2972 289.941 90.1791 289.469 90.1791 288.642ZM100.077 277.895C99.565 277.895 99.0828 278.013 98.6301 278.249C97.2523 278.938 96.5142 280.415 96.4158 282.678L99.5453 282.767C100.451 282.786 101.149 282.747 101.642 282.649C102.586 282.432 103.059 281.832 103.059 280.848C103.059 280.415 102.98 280.011 102.822 279.637C102.37 278.476 101.455 277.895 100.077 277.895ZM105.214 287.166C105.096 287.441 104.958 287.717 104.801 287.992C103.797 289.528 102.232 290.295 100.106 290.295C98.7679 290.295 97.5771 289.951 96.5339 289.262C94.7821 288.081 93.9062 286.27 93.9062 283.829C93.9062 282.491 94.1818 281.29 94.7329 280.228C95.7958 278.181 97.5574 277.157 100.018 277.157C101.277 277.157 102.389 277.442 103.354 278.013C104.712 278.801 105.391 279.863 105.391 281.202C105.391 281.93 105.125 282.491 104.594 282.885C103.905 283.377 102.36 283.603 99.9587 283.564L96.4158 283.505C96.4355 284.331 96.524 285.089 96.6815 285.778C97.2129 288.238 98.512 289.469 100.579 289.469C100.756 289.469 100.943 289.459 101.14 289.439C102.675 289.242 103.787 288.396 104.476 286.9L105.214 287.166ZM114.226 289.262C114.344 289.262 114.442 289.272 114.521 289.291C114.816 289.331 114.964 289.567 114.964 290H107.672V289.262C108.341 289.262 108.823 289.213 109.118 289.114C109.63 288.937 109.886 288.396 109.886 287.49V278.19H107.672V277.452H111.952L112.071 280.375C112.326 279.785 112.671 279.253 113.104 278.781C114.029 277.777 115.082 277.275 116.263 277.275C116.44 277.275 116.627 277.295 116.824 277.334C117.729 277.531 118.182 278.072 118.182 278.958C118.182 279.076 118.162 279.194 118.123 279.312C117.966 279.883 117.592 280.169 117.001 280.169C116.883 280.169 116.765 280.149 116.647 280.109C116.371 280.031 116.076 279.716 115.761 279.165C115.486 278.673 115.18 278.427 114.846 278.427C114.551 278.446 114.186 278.663 113.753 279.076C112.651 280.159 112.1 281.596 112.1 283.387V289.262H114.226ZM119.222 278.19V277.452H121.289V274.648L123.503 274.028V277.452H128.08V278.19H123.503V287.166C123.523 288.642 124.064 289.4 125.127 289.439C126.072 289.301 126.79 288.416 127.283 286.782L128.08 286.93C128.08 286.949 128.08 286.969 128.08 286.989C127.627 289.213 126.495 290.325 124.684 290.325C122.559 290.246 121.427 288.977 121.289 286.516V278.19H119.222ZM135.468 289.262C135.566 289.262 135.665 289.272 135.763 289.291C136.058 289.331 136.206 289.567 136.206 290H129.415V289.262C130.085 289.262 130.567 289.223 130.862 289.144C131.472 288.947 131.777 288.396 131.777 287.49V278.19H129.415V277.452H133.992V289.262H135.468ZM134.346 273.142C134.346 273.378 134.297 273.604 134.198 273.821C133.923 274.451 133.44 274.766 132.752 274.766C132.535 274.766 132.319 274.726 132.102 274.648C131.452 274.372 131.128 273.87 131.128 273.142C131.128 272.906 131.177 272.679 131.275 272.463C131.571 271.833 132.063 271.518 132.752 271.518C132.968 271.518 133.194 271.567 133.431 271.666C134.041 271.961 134.346 272.453 134.346 273.142ZM144.391 289.232C144.509 289.232 144.617 289.242 144.716 289.262C144.972 289.301 145.1 289.547 145.1 290H138.28V289.232C139.736 289.232 140.484 288.721 140.523 287.697V278.22H138.427V277.452H140.523V276.98C140.523 275.661 140.769 274.529 141.262 273.585C142.305 271.636 144.224 270.662 147.019 270.662C148.318 270.662 149.39 270.888 150.237 271.341C151.221 271.853 151.713 272.502 151.713 273.289C151.713 273.388 151.703 273.486 151.683 273.585C151.546 274.175 151.113 274.47 150.384 274.47C150.168 274.47 149.961 274.431 149.764 274.352C149.39 274.215 149.036 273.801 148.702 273.112C148.603 272.915 148.524 272.768 148.465 272.669C148.013 271.823 147.284 271.4 146.281 271.4C145.808 271.4 145.375 271.469 144.982 271.607C143.486 272.138 142.738 274.028 142.738 277.275V277.452H151.477V289.232H153.071C153.189 289.232 153.297 289.242 153.396 289.262C153.652 289.301 153.78 289.547 153.78 290H147.078V289.232C147.334 289.232 147.57 289.223 147.786 289.203C148.77 289.085 149.263 288.583 149.263 287.697V278.22H142.738V289.232H144.391ZM156.001 283.859C156.001 282.56 156.247 281.399 156.739 280.375C157.782 278.23 159.623 277.157 162.26 277.157C163.323 277.157 164.307 277.383 165.213 277.836C166.492 278.486 167.132 279.312 167.132 280.316C167.132 280.434 167.112 280.562 167.073 280.7C166.895 281.29 166.472 281.566 165.803 281.527C165.567 281.507 165.35 281.448 165.154 281.349C164.839 281.153 164.622 280.661 164.504 279.873C164.445 279.539 164.396 279.293 164.356 279.135C164.14 278.309 163.5 277.895 162.437 277.895C161.748 277.895 161.119 278.072 160.548 278.427C159.19 279.293 158.511 281.015 158.511 283.593C158.511 285.05 158.806 286.31 159.396 287.372C160.184 288.77 161.276 289.469 162.674 289.469C162.831 289.469 162.988 289.459 163.146 289.439C164.819 289.282 166.02 288.425 166.748 286.87L167.515 287.136C167.378 287.471 167.191 287.805 166.954 288.14C165.911 289.577 164.366 290.295 162.319 290.295C160.941 290.295 159.711 289.931 158.629 289.203C156.877 288.022 156.001 286.241 156.001 283.859ZM179.509 290.295C178.131 290.276 177.324 289.39 177.088 287.638C176.911 288.051 176.645 288.445 176.291 288.819C175.307 289.803 174.097 290.295 172.66 290.295C172.069 290.295 171.508 290.187 170.977 289.97C169.658 289.419 168.999 288.396 168.999 286.9C168.999 286.467 169.058 286.063 169.176 285.689C169.845 283.761 172.492 282.796 177.118 282.796V280.936C177.059 279.027 176.104 278.013 174.254 277.895C173.467 277.895 172.886 278.141 172.512 278.633C172.414 278.771 172.227 279.204 171.951 279.932C171.735 280.503 171.4 280.789 170.947 280.789C170.849 280.789 170.75 280.779 170.652 280.759C170.081 280.661 169.796 280.306 169.796 279.696C169.796 279.362 169.914 279.027 170.15 278.692C170.898 277.669 172.374 277.157 174.579 277.157C174.756 277.157 174.933 277.157 175.11 277.157C177.925 277.315 179.332 278.801 179.332 281.615V287.845C179.352 288.829 179.618 289.341 180.129 289.38C180.759 289.36 181.143 288.632 181.281 287.195L182.048 287.225C182.048 287.323 182.038 287.431 182.019 287.55C181.861 289.38 181.025 290.295 179.509 290.295ZM173.634 289.114C174.067 289.114 174.51 289.016 174.963 288.819C176.104 288.268 176.823 287.313 177.118 285.955V283.593C175.583 283.613 174.411 283.711 173.604 283.889C172.089 284.243 171.331 285.079 171.331 286.398C171.331 286.733 171.361 287.038 171.42 287.313C171.695 288.514 172.433 289.114 173.634 289.114ZM189.141 289.262C189.24 289.262 189.338 289.272 189.436 289.291C189.732 289.35 189.879 289.587 189.879 290H183.384V289.262C184.053 289.262 184.535 289.213 184.831 289.114C185.342 288.937 185.598 288.396 185.598 287.49V278.19H183.384V277.452H187.665L187.783 280.405C187.98 279.873 188.246 279.391 188.58 278.958C189.505 277.757 190.676 277.157 192.094 277.157C192.468 277.157 192.832 277.226 193.186 277.364C194.387 277.816 195.164 278.82 195.518 280.375C195.676 279.982 195.873 279.608 196.109 279.253C197.014 277.856 198.215 277.157 199.711 277.157C200.4 277.157 201.039 277.334 201.63 277.688C202.949 278.495 203.608 279.913 203.608 281.94V289.262H205.114C205.232 289.262 205.33 289.272 205.409 289.291C205.704 289.331 205.852 289.567 205.852 290H199.327V289.262C199.996 289.262 200.469 289.213 200.744 289.114C201.177 288.937 201.394 288.396 201.394 287.49V281.645C201.394 281.015 201.295 280.454 201.098 279.962C200.685 278.919 199.976 278.397 198.973 278.397C198.599 278.397 198.205 278.495 197.792 278.692C196.709 279.263 196.01 280.267 195.695 281.704V281.94V289.262H197.024C197.142 289.262 197.241 289.272 197.319 289.291C197.615 289.331 197.762 289.567 197.762 290H191.415V289.262C192.084 289.262 192.556 289.213 192.832 289.114C193.265 288.937 193.481 288.396 193.481 287.49V281.645C193.481 281.054 193.402 280.523 193.245 280.05C192.871 278.968 192.192 278.427 191.208 278.427C190.676 278.427 190.145 278.623 189.614 279.017C188.472 279.863 187.872 281.153 187.813 282.885V289.262H189.141ZM210.583 283.711C210.583 284.558 210.652 285.325 210.789 286.014C211.301 288.376 212.551 289.557 214.539 289.557C214.913 289.557 215.277 289.508 215.631 289.41C217.442 288.839 218.347 286.9 218.347 283.593C218.347 283.022 218.318 282.501 218.259 282.029C217.905 279.273 216.635 277.895 214.45 277.895C213.978 277.895 213.525 277.974 213.092 278.131C211.419 278.801 210.583 280.661 210.583 283.711ZM214.539 277.157C215.838 277.157 217.029 277.502 218.111 278.19C219.942 279.391 220.857 281.231 220.857 283.711C220.857 285.542 220.286 287.067 219.145 288.288C217.905 289.626 216.34 290.295 214.45 290.295C213.112 290.295 211.892 289.921 210.789 289.173C208.979 287.933 208.073 286.073 208.073 283.593C208.073 281.802 208.654 280.306 209.815 279.106C211.075 277.807 212.649 277.157 214.539 277.157ZM227.95 289.498C229.308 289.498 230.223 289.085 230.696 288.258C230.873 287.963 230.961 287.638 230.961 287.284C230.961 286.457 230.361 285.749 229.16 285.158C228.904 285.02 228.481 284.823 227.891 284.568C226.277 283.898 225.204 283.269 224.673 282.678C224.102 282.029 223.816 281.271 223.816 280.405C223.816 279.047 224.564 278.092 226.06 277.541C226.749 277.285 227.497 277.157 228.304 277.157C229.603 277.157 230.725 277.433 231.67 277.984C231.67 277.413 231.808 277.088 232.083 277.009C232.201 276.99 232.329 276.98 232.467 276.98V280.67H231.699C231.66 278.86 230.656 277.944 228.688 277.925C227.212 277.925 226.296 278.358 225.942 279.224C225.844 279.46 225.795 279.706 225.795 279.962C225.795 280.808 226.405 281.527 227.625 282.117C227.901 282.255 228.334 282.442 228.924 282.678C230.518 283.328 231.581 283.948 232.113 284.538C232.684 285.168 232.969 285.916 232.969 286.782C232.969 288.376 232.123 289.439 230.43 289.97C229.78 290.187 229.072 290.295 228.304 290.295C226.887 290.276 225.657 289.921 224.614 289.232C224.614 289.744 224.486 290.039 224.23 290.118C224.112 290.138 223.974 290.148 223.816 290.148V285.66H224.643C224.683 288.199 225.785 289.478 227.95 289.498ZM241.693 284.243C241.693 282.216 242.195 280.562 243.198 279.283C244.34 277.866 245.826 277.157 247.657 277.157C249.27 277.157 250.619 277.679 251.701 278.722L251.849 277.452H255.982V278.19H253.768V294.871H255.274C255.392 294.871 255.49 294.881 255.569 294.901C255.864 294.94 256.012 295.177 256.012 295.61H248.749V294.871C249.674 294.871 250.324 294.812 250.697 294.694C251.268 294.497 251.554 293.966 251.554 293.1L251.583 287.107C251.406 287.481 251.199 287.845 250.963 288.199C249.94 289.597 248.562 290.295 246.83 290.295C245.826 290.295 244.921 290.03 244.114 289.498C242.5 288.435 241.693 286.683 241.693 284.243ZM251.583 283.15C251.583 282.462 251.534 281.832 251.436 281.261C251.022 279.017 249.891 277.895 248.04 277.895C247.45 277.895 246.918 278.023 246.446 278.279C244.95 279.086 244.202 280.897 244.202 283.711C244.202 284.577 244.281 285.345 244.438 286.014C244.911 288.081 246.003 289.114 247.716 289.114C248.345 289.114 248.926 288.947 249.457 288.612C250.875 287.707 251.583 285.886 251.583 283.15ZM272.257 289.262C272.375 289.262 272.474 289.272 272.552 289.291C272.848 289.331 272.995 289.567 272.995 290H268.832L268.626 286.989C268.409 287.54 268.124 288.042 267.769 288.494C266.825 289.695 265.614 290.295 264.138 290.295C261.343 290.276 259.936 288.583 259.916 285.217V278.19H257.643V277.452H262.13V285.66C262.13 285.975 262.15 286.27 262.189 286.546C262.445 288.199 263.38 289.026 264.994 289.026C265.585 289.026 266.155 288.839 266.707 288.465C267.947 287.638 268.567 286.339 268.567 284.568V278.19H266.146V277.452H270.781V289.262H272.257ZM281.446 277.895C280.934 277.895 280.452 278.013 279.999 278.249C278.622 278.938 277.884 280.415 277.785 282.678L280.915 282.767C281.82 282.786 282.519 282.747 283.011 282.649C283.956 282.432 284.428 281.832 284.428 280.848C284.428 280.415 284.349 280.011 284.192 279.637C283.739 278.476 282.824 277.895 281.446 277.895ZM286.583 287.166C286.465 287.441 286.327 287.717 286.17 287.992C285.166 289.528 283.601 290.295 281.476 290.295C280.137 290.295 278.946 289.951 277.903 289.262C276.151 288.081 275.276 286.27 275.276 283.829C275.276 282.491 275.551 281.29 276.102 280.228C277.165 278.181 278.927 277.157 281.387 277.157C282.647 277.157 283.759 277.442 284.723 278.013C286.081 278.801 286.76 279.863 286.76 281.202C286.76 281.93 286.495 282.491 285.963 282.885C285.274 283.377 283.729 283.603 281.328 283.564L277.785 283.505C277.805 284.331 277.893 285.089 278.051 285.778C278.582 288.238 279.881 289.469 281.948 289.469C282.125 289.469 282.312 289.459 282.509 289.439C284.044 289.242 285.156 288.396 285.845 286.9L286.583 287.166Z" fill="black"/>
<path d="M79.1958 378.871H81.2623C81.3804 378.871 81.4788 378.881 81.5575 378.901C81.8527 378.94 82.0003 379.176 82.0003 379.609H74.7676V378.871C75.4367 378.871 75.9189 378.822 76.2141 378.723C76.7258 378.546 76.9817 378.005 76.9817 377.1V362.191H74.7676V361.453H79.0187L79.1663 364.671C79.3237 364.238 79.5205 363.825 79.7567 363.431C80.7014 361.916 82.1282 361.158 84.0373 361.158C85.2772 361.158 86.3301 361.552 87.1961 362.339C88.436 363.5 89.056 365.203 89.056 367.446C89.056 369.414 88.4852 371.038 87.3437 372.317C86.1629 373.636 84.6966 374.295 82.945 374.295C81.528 374.216 80.2782 373.705 79.1958 372.76V378.871ZM83.0926 362.339C82.3841 362.339 81.7346 362.556 81.1442 362.988C79.8256 363.973 79.1663 365.744 79.1663 368.302C79.1663 369.404 79.3139 370.359 79.6091 371.166C80.1798 372.76 81.2229 373.557 82.7384 373.557C83.2697 373.557 83.7618 373.449 84.2144 373.232C85.7692 372.465 86.5466 370.635 86.5466 367.741C86.5466 366.935 86.4777 366.206 86.34 365.557C85.8873 363.412 84.8049 362.339 83.0926 362.339ZM102.082 374.295C100.704 374.276 99.8974 373.39 99.6613 371.638C99.4841 372.052 99.2184 372.445 98.8642 372.819C97.8801 373.803 96.6697 374.295 95.233 374.295C94.6426 374.295 94.0817 374.187 93.5503 373.97C92.2317 373.419 91.5724 372.396 91.5724 370.9C91.5724 370.467 91.6314 370.064 91.7495 369.69C92.4187 367.761 95.0657 366.797 99.6908 366.797V364.937C99.6317 363.028 98.6772 362.014 96.8272 361.896C96.04 361.896 95.4594 362.142 95.0854 362.634C94.987 362.772 94.8001 363.205 94.5245 363.933C94.308 364.504 93.9734 364.789 93.5208 364.789C93.4224 364.789 93.324 364.779 93.2256 364.76C92.6548 364.661 92.3694 364.307 92.3694 363.697C92.3694 363.362 92.4875 363.028 92.7237 362.693C93.4716 361.67 94.9477 361.158 97.1519 361.158C97.3291 361.158 97.5062 361.158 97.6833 361.158C100.498 361.316 101.905 362.802 101.905 365.616V371.845C101.925 372.829 102.19 373.341 102.702 373.38C103.332 373.36 103.716 372.632 103.853 371.195L104.621 371.225C104.621 371.323 104.611 371.432 104.591 371.55C104.434 373.38 103.597 374.295 102.082 374.295ZM96.2072 373.114C96.6402 373.114 97.083 373.016 97.5357 372.819C98.6772 372.268 99.3956 371.314 99.6908 369.956V367.594C98.1557 367.614 96.9846 367.712 96.1777 367.889C94.6623 368.243 93.9046 369.08 93.9046 370.398C93.9046 370.733 93.9341 371.038 93.9931 371.314C94.2687 372.514 95.0067 373.114 96.2072 373.114ZM112.569 373.262C112.687 373.262 112.786 373.272 112.864 373.291C113.16 373.331 113.307 373.567 113.307 374H106.015V373.262C106.685 373.262 107.167 373.213 107.462 373.114C107.974 372.937 108.23 372.396 108.23 371.491V362.191H106.015V361.453H110.296L110.414 364.376C110.67 363.786 111.014 363.254 111.447 362.782C112.372 361.778 113.425 361.276 114.606 361.276C114.783 361.276 114.97 361.296 115.167 361.335C116.072 361.532 116.525 362.073 116.525 362.959C116.525 363.077 116.505 363.195 116.466 363.313C116.309 363.884 115.935 364.169 115.344 364.169C115.226 364.169 115.108 364.15 114.99 364.11C114.714 364.032 114.419 363.717 114.104 363.166C113.829 362.674 113.524 362.428 113.189 362.428C112.894 362.447 112.53 362.664 112.097 363.077C110.995 364.16 110.444 365.596 110.444 367.387V373.262H112.569ZM117.565 362.191V361.453H119.632V358.649L121.846 358.029V361.453H126.422V362.191H121.846V371.166C121.866 372.642 122.407 373.4 123.47 373.439C124.414 373.301 125.133 372.416 125.625 370.782L126.422 370.93C126.422 370.949 126.422 370.969 126.422 370.989C125.969 373.213 124.838 374.325 123.027 374.325C120.901 374.246 119.77 372.977 119.632 370.516V362.191H117.565ZM133.809 373.262C133.908 373.262 134.006 373.272 134.105 373.291C134.4 373.331 134.547 373.567 134.547 374H127.757V373.262C128.427 373.262 128.909 373.223 129.204 373.144C129.814 372.947 130.119 372.396 130.119 371.491V362.191H127.757V361.453H132.333V373.262H133.809ZM132.688 357.143C132.688 357.379 132.638 357.606 132.54 357.822C132.264 358.452 131.782 358.767 131.093 358.767C130.877 358.767 130.66 358.728 130.444 358.649C129.794 358.373 129.47 357.871 129.47 357.143C129.47 356.907 129.519 356.681 129.617 356.464C129.913 355.834 130.405 355.52 131.093 355.52C131.31 355.52 131.536 355.569 131.772 355.667C132.382 355.962 132.688 356.454 132.688 357.143ZM136.916 367.86C136.916 366.561 137.162 365.399 137.654 364.376C138.697 362.231 140.537 361.158 143.175 361.158C144.238 361.158 145.222 361.384 146.127 361.837C147.406 362.487 148.046 363.313 148.046 364.317C148.046 364.435 148.026 364.563 147.987 364.701C147.81 365.291 147.386 365.567 146.717 365.527C146.481 365.508 146.265 365.449 146.068 365.35C145.753 365.153 145.536 364.661 145.418 363.874C145.359 363.54 145.31 363.294 145.271 363.136C145.054 362.309 144.415 361.896 143.352 361.896C142.663 361.896 142.033 362.073 141.462 362.428C140.105 363.294 139.426 365.016 139.426 367.594C139.426 369.05 139.721 370.31 140.311 371.373C141.098 372.77 142.191 373.469 143.588 373.469C143.745 373.469 143.903 373.459 144.06 373.439C145.733 373.282 146.934 372.426 147.662 370.871L148.43 371.136C148.292 371.471 148.105 371.806 147.869 372.14C146.826 373.577 145.281 374.295 143.234 374.295C141.856 374.295 140.626 373.931 139.544 373.203C137.792 372.022 136.916 370.241 136.916 367.86ZM155.817 373.262C155.915 373.262 156.014 373.272 156.112 373.291C156.407 373.331 156.555 373.567 156.555 374H149.765V373.262C150.434 373.262 150.916 373.223 151.212 373.144C151.822 372.947 152.127 372.396 152.127 371.491V362.191H149.765V361.453H154.341V373.262H155.817ZM154.695 357.143C154.695 357.379 154.646 357.606 154.548 357.822C154.272 358.452 153.79 358.767 153.101 358.767C152.885 358.767 152.668 358.728 152.452 358.649C151.802 358.373 151.477 357.871 151.477 357.143C151.477 356.907 151.527 356.681 151.625 356.464C151.92 355.834 152.412 355.52 153.101 355.52C153.318 355.52 153.544 355.569 153.78 355.667C154.39 355.962 154.695 356.454 154.695 357.143ZM162.939 378.871H165.005C165.123 378.871 165.222 378.881 165.301 378.901C165.596 378.94 165.743 379.176 165.743 379.609H158.511V378.871C159.18 378.871 159.662 378.822 159.957 378.723C160.469 378.546 160.725 378.005 160.725 377.1V362.191H158.511V361.453H162.762L162.909 364.671C163.067 364.238 163.264 363.825 163.5 363.431C164.444 361.916 165.871 361.158 167.78 361.158C169.02 361.158 170.073 361.552 170.939 362.339C172.179 363.5 172.799 365.203 172.799 367.446C172.799 369.414 172.228 371.038 171.087 372.317C169.906 373.636 168.44 374.295 166.688 374.295C165.271 374.216 164.021 373.705 162.939 372.76V378.871ZM166.836 362.339C166.127 362.339 165.478 362.556 164.887 362.988C163.569 363.973 162.909 365.744 162.909 368.302C162.909 369.404 163.057 370.359 163.352 371.166C163.923 372.76 164.966 373.557 166.481 373.557C167.013 373.557 167.505 373.449 167.957 373.232C169.512 372.465 170.29 370.635 170.29 367.741C170.29 366.935 170.221 366.206 170.083 365.557C169.63 363.412 168.548 362.339 166.836 362.339ZM177.972 367.712C177.972 368.558 178.041 369.326 178.179 370.015C178.691 372.376 179.94 373.557 181.928 373.557C182.302 373.557 182.666 373.508 183.02 373.41C184.831 372.839 185.736 370.9 185.736 367.594C185.736 367.023 185.707 366.502 185.648 366.029C185.294 363.274 184.024 361.896 181.84 361.896C181.367 361.896 180.915 361.975 180.482 362.132C178.809 362.802 177.972 364.661 177.972 367.712ZM181.928 361.158C183.227 361.158 184.418 361.503 185.5 362.191C187.331 363.392 188.246 365.232 188.246 367.712C188.246 369.542 187.675 371.068 186.534 372.288C185.294 373.626 183.729 374.295 181.84 374.295C180.501 374.295 179.281 373.921 178.179 373.173C176.368 371.933 175.463 370.074 175.463 367.594C175.463 365.803 176.044 364.307 177.205 363.107C178.464 361.808 180.039 361.158 181.928 361.158ZM204.933 373.262C205.051 373.262 205.149 373.272 205.228 373.291C205.523 373.331 205.671 373.567 205.671 374H201.508L201.301 370.989C201.085 371.54 200.799 372.042 200.445 372.494C199.501 373.695 198.29 374.295 196.814 374.295C194.019 374.276 192.612 372.583 192.593 369.218V362.191H190.319V361.453H194.807V369.66C194.807 369.975 194.826 370.27 194.866 370.546C195.122 372.199 196.056 373.026 197.67 373.026C198.261 373.026 198.831 372.839 199.382 372.465C200.622 371.638 201.242 370.339 201.242 368.568V362.191H198.822V361.453H203.456V373.262H204.933ZM224.077 374L223.84 370.871C222.876 373.114 221.321 374.256 219.176 374.295C218.133 374.295 217.178 373.99 216.312 373.38C214.777 372.258 214.01 370.477 214.01 368.037C214.01 366.561 214.344 365.232 215.014 364.051C216.116 362.123 217.749 361.158 219.914 361.158C221.548 361.158 222.847 361.69 223.811 362.752V355.549H221.006V354.811H226.025L226.084 373.262H227.56C227.678 373.262 227.777 373.272 227.855 373.291C228.151 373.331 228.298 373.567 228.298 374H224.077ZM216.519 367.682C216.519 368.607 216.618 369.434 216.814 370.162C217.306 372.13 218.359 373.114 219.973 373.114C220.78 373.114 221.498 372.829 222.128 372.258C223.309 371.195 223.899 369.483 223.899 367.121C223.899 366 223.732 365.025 223.398 364.199C222.787 362.664 221.764 361.896 220.327 361.896C219.757 361.896 219.235 362.024 218.763 362.28C217.267 363.107 216.519 364.907 216.519 367.682ZM240.852 374.295C239.474 374.276 238.667 373.39 238.431 371.638C238.254 372.052 237.988 372.445 237.634 372.819C236.65 373.803 235.44 374.295 234.003 374.295C233.412 374.295 232.852 374.187 232.32 373.97C231.002 373.419 230.342 372.396 230.342 370.9C230.342 370.467 230.401 370.064 230.519 369.69C231.189 367.761 233.836 366.797 238.461 366.797V364.937C238.402 363.028 237.447 362.014 235.597 361.896C234.81 361.896 234.229 362.142 233.855 362.634C233.757 362.772 233.57 363.205 233.294 363.933C233.078 364.504 232.743 364.789 232.291 364.789C232.192 364.789 232.094 364.779 231.995 364.76C231.425 364.661 231.139 364.307 231.139 363.697C231.139 363.362 231.257 363.028 231.494 362.693C232.241 361.67 233.718 361.158 235.922 361.158C236.099 361.158 236.276 361.158 236.453 361.158C239.268 361.316 240.675 362.802 240.675 365.616V371.845C240.694 372.829 240.96 373.341 241.472 373.38C242.102 373.36 242.485 372.632 242.623 371.195L243.391 371.225C243.391 371.323 243.381 371.432 243.361 371.55C243.204 373.38 242.367 374.295 240.852 374.295ZM234.977 373.114C235.41 373.114 235.853 373.016 236.306 372.819C237.447 372.268 238.165 371.314 238.461 369.956V367.594C236.926 367.614 235.755 367.712 234.948 367.889C233.432 368.243 232.674 369.08 232.674 370.398C232.674 370.733 232.704 371.038 232.763 371.314C233.039 372.514 233.777 373.114 234.977 373.114ZM261.443 374.295C260.065 374.276 259.258 373.39 259.022 371.638C258.845 372.052 258.579 372.445 258.225 372.819C257.241 373.803 256.03 374.295 254.594 374.295C254.003 374.295 253.442 374.187 252.911 373.97C251.592 373.419 250.933 372.396 250.933 370.9C250.933 370.467 250.992 370.064 251.11 369.69C251.779 367.761 254.426 366.797 259.051 366.797V364.937C258.992 363.028 258.038 362.014 256.188 361.896C255.4 361.896 254.82 362.142 254.446 362.634C254.348 362.772 254.161 363.205 253.885 363.933C253.669 364.504 253.334 364.789 252.881 364.789C252.783 364.789 252.684 364.779 252.586 364.76C252.015 364.661 251.73 364.307 251.73 363.697C251.73 363.362 251.848 363.028 252.084 362.693C252.832 361.67 254.308 361.158 256.512 361.158C256.69 361.158 256.867 361.158 257.044 361.158C259.858 361.316 261.265 362.802 261.265 365.616V371.845C261.285 372.829 261.551 373.341 262.062 373.38C262.692 373.36 263.076 372.632 263.214 371.195L263.981 371.225C263.981 371.323 263.972 371.432 263.952 371.55C263.794 373.38 262.958 374.295 261.443 374.295ZM255.568 373.114C256.001 373.114 256.444 373.016 256.896 372.819C258.038 372.268 258.756 371.314 259.051 369.956V367.594C257.516 367.614 256.345 367.712 255.538 367.889C254.023 368.243 253.265 369.08 253.265 370.398C253.265 370.733 253.295 371.038 253.354 371.314C253.629 372.514 254.367 373.114 255.568 373.114ZM265.022 362.191V361.453H267.088V358.649L269.302 358.029V361.453H273.878V362.191H269.302V371.166C269.322 372.642 269.863 373.4 270.926 373.439C271.871 373.301 272.589 372.416 273.081 370.782L273.878 370.93C273.878 370.949 273.878 370.969 273.878 370.989C273.426 373.213 272.294 374.325 270.483 374.325C268.358 374.246 267.226 372.977 267.088 370.516V362.191H265.022ZM281.266 373.262C281.364 373.262 281.462 373.272 281.561 373.291C281.856 373.331 282.004 373.567 282.004 374H275.214V373.262C275.883 373.262 276.365 373.223 276.66 373.144C277.27 372.947 277.575 372.396 277.575 371.491V362.191H275.214V361.453H279.79V373.262H281.266ZM280.144 357.143C280.144 357.379 280.095 357.606 279.996 357.822C279.721 358.452 279.238 358.767 278.55 358.767C278.333 358.767 278.117 358.728 277.9 358.649C277.251 358.373 276.926 357.871 276.926 357.143C276.926 356.907 276.975 356.681 277.074 356.464C277.369 355.834 277.861 355.52 278.55 355.52C278.766 355.52 278.992 355.569 279.229 355.667C279.839 355.962 280.144 356.454 280.144 357.143ZM289.007 362.191H286.941L290.72 372.258L294.469 362.191H292.255V361.453H296.801C296.801 361.552 296.791 361.65 296.771 361.749C296.732 362.044 296.496 362.191 296.063 362.191C295.984 362.191 295.896 362.201 295.797 362.221C295.463 362.28 295.177 362.615 294.941 363.225L290.779 374.148H290.395C290.041 374.148 289.745 374.098 289.509 374C289.037 373.823 288.604 373.183 288.21 372.081L284.609 362.191H283.28V361.453H289.007V362.191ZM304.129 373.262C304.228 373.262 304.326 373.272 304.425 373.291C304.72 373.331 304.867 373.567 304.867 374H298.078V373.262C298.747 373.262 299.229 373.223 299.524 373.144C300.134 372.947 300.439 372.396 300.439 371.491V362.191H298.078V361.453H302.653V373.262H304.129ZM303.008 357.143C303.008 357.379 302.958 357.606 302.86 357.822C302.584 358.452 302.102 358.767 301.413 358.767C301.197 358.767 300.98 358.728 300.764 358.649C300.114 358.373 299.79 357.871 299.79 357.143C299.79 356.907 299.839 356.681 299.937 356.464C300.233 355.834 300.725 355.52 301.413 355.52C301.63 355.52 301.856 355.569 302.092 355.667C302.703 355.962 303.008 356.454 303.008 357.143ZM317.303 374L317.067 370.871C316.103 373.114 314.548 374.256 312.403 374.295C311.359 374.295 310.405 373.99 309.539 373.38C308.004 372.258 307.236 370.477 307.236 368.037C307.236 366.561 307.571 365.232 308.24 364.051C309.342 362.123 310.976 361.158 313.141 361.158C314.774 361.158 316.073 361.69 317.037 362.752V355.549H314.233V354.811H319.252L319.311 373.262H320.787C320.905 373.262 321.003 373.272 321.082 373.291C321.377 373.331 321.525 373.567 321.525 374H317.303ZM309.746 367.682C309.746 368.607 309.844 369.434 310.041 370.162C310.533 372.13 311.586 373.114 313.2 373.114C314.007 373.114 314.725 372.829 315.355 372.258C316.536 371.195 317.126 369.483 317.126 367.121C317.126 366 316.959 365.025 316.624 364.199C316.014 362.664 314.991 361.896 313.554 361.896C312.983 361.896 312.462 362.024 311.989 362.28C310.493 363.107 309.746 364.907 309.746 367.682ZM334.078 374.295C332.701 374.276 331.894 373.39 331.658 371.638C331.48 372.052 331.215 372.445 330.861 372.819C329.876 373.803 328.666 374.295 327.229 374.295C326.639 374.295 326.078 374.187 325.547 373.97C324.228 373.419 323.569 372.396 323.569 370.9C323.569 370.467 323.628 370.064 323.746 369.69C324.415 367.761 327.062 366.797 331.687 366.797V364.937C331.628 363.028 330.674 362.014 328.824 361.896C328.036 361.896 327.456 362.142 327.082 362.634C326.983 362.772 326.796 363.205 326.521 363.933C326.304 364.504 325.97 364.789 325.517 364.789C325.419 364.789 325.32 364.779 325.222 364.76C324.651 364.661 324.366 364.307 324.366 363.697C324.366 363.362 324.484 363.028 324.72 362.693C325.468 361.67 326.944 361.158 329.148 361.158C329.325 361.158 329.503 361.158 329.68 361.158C332.494 361.316 333.901 362.802 333.901 365.616V371.845C333.921 372.829 334.187 373.341 334.698 373.38C335.328 373.36 335.712 372.632 335.85 371.195L336.617 371.225C336.617 371.323 336.607 371.432 336.588 371.55C336.43 373.38 335.594 374.295 334.078 374.295ZM328.204 373.114C328.637 373.114 329.079 373.016 329.532 372.819C330.674 372.268 331.392 371.314 331.687 369.956V367.594C330.152 367.614 328.981 367.712 328.174 367.889C326.659 368.243 325.901 369.08 325.901 370.398C325.901 370.733 325.93 371.038 325.989 371.314C326.265 372.514 327.003 373.114 328.204 373.114ZM348.315 374L348.079 370.871C347.114 373.114 345.559 374.256 343.414 374.295C342.371 374.295 341.417 373.99 340.551 373.38C339.016 372.258 338.248 370.477 338.248 368.037C338.248 366.561 338.583 365.232 339.252 364.051C340.354 362.123 341.987 361.158 344.152 361.158C345.786 361.158 347.085 361.69 348.049 362.752V355.549H345.245V354.811H350.263L350.322 373.262H351.798C351.916 373.262 352.015 373.272 352.094 373.291C352.389 373.331 352.536 373.567 352.536 374H348.315ZM340.757 367.682C340.757 368.607 340.856 369.434 341.053 370.162C341.545 372.13 342.597 373.114 344.211 373.114C345.018 373.114 345.737 372.829 346.366 372.258C347.547 371.195 348.138 369.483 348.138 367.121C348.138 366 347.97 365.025 347.636 364.199C347.026 362.664 346.002 361.896 344.566 361.896C343.995 361.896 343.473 362.024 343.001 362.28C341.505 363.107 340.757 364.907 340.757 367.682ZM360.898 361.896C360.386 361.896 359.904 362.014 359.452 362.25C358.074 362.939 357.336 364.415 357.237 366.679L360.367 366.767C361.272 366.787 361.971 366.748 362.463 366.649C363.407 366.433 363.88 365.832 363.88 364.848C363.88 364.415 363.801 364.012 363.644 363.638C363.191 362.477 362.276 361.896 360.898 361.896ZM366.035 371.166C365.917 371.441 365.779 371.717 365.621 371.993C364.618 373.528 363.053 374.295 360.928 374.295C359.589 374.295 358.399 373.951 357.355 373.262C355.604 372.081 354.728 370.27 354.728 367.83C354.728 366.492 355.004 365.291 355.555 364.228C356.617 362.182 358.379 361.158 360.839 361.158C362.099 361.158 363.211 361.444 364.175 362.014C365.533 362.802 366.212 363.864 366.212 365.203C366.212 365.931 365.946 366.492 365.415 366.885C364.726 367.377 363.181 367.604 360.78 367.564L357.237 367.505C357.257 368.332 357.346 369.09 357.503 369.778C358.034 372.239 359.333 373.469 361.4 373.469C361.577 373.469 361.764 373.459 361.961 373.439C363.496 373.242 364.608 372.396 365.297 370.9L366.035 371.166Z" fill="black"/>
<path d="M85.2477 473L85.0115 469.871C84.0471 472.114 82.4923 473.256 80.3471 473.295C79.304 473.295 78.3495 472.99 77.4835 472.38C75.9484 471.258 75.1809 469.477 75.1809 467.037C75.1809 465.561 75.5154 464.232 76.1846 463.051C77.2867 461.123 78.9202 460.158 81.0852 460.158C82.7187 460.158 84.0176 460.69 84.982 461.752V454.549H82.1775V453.811H87.1961L87.2551 472.262H88.7312C88.8493 472.262 88.9477 472.272 89.0264 472.291C89.3217 472.331 89.4693 472.567 89.4693 473H85.2477ZM77.6902 466.682C77.6902 467.607 77.7886 468.434 77.9854 469.162C78.4774 471.13 79.5304 472.114 81.1442 472.114C81.9511 472.114 82.6695 471.829 83.2993 471.258C84.4801 470.195 85.0706 468.483 85.0706 466.121C85.0706 465 84.9033 464.025 84.5687 463.199C83.9586 461.664 82.9352 460.896 81.4985 460.896C80.9277 460.896 80.4062 461.024 79.9338 461.28C78.4381 462.107 77.6902 463.907 77.6902 466.682ZM105.684 472.262C105.802 472.262 105.9 472.272 105.979 472.291C106.274 472.331 106.422 472.567 106.422 473H102.259L102.052 469.989C101.836 470.54 101.551 471.042 101.196 471.494C100.252 472.695 99.0413 473.295 97.5652 473.295C94.7705 473.276 93.3633 471.583 93.3437 468.218V461.191H91.0705V460.453H95.5578V468.66C95.5578 468.975 95.5774 469.27 95.6168 469.546C95.8727 471.199 96.8075 472.026 98.4214 472.026C99.0118 472.026 99.5825 471.839 100.134 471.465C101.373 470.638 101.993 469.339 101.993 467.568V461.191H99.5727V460.453H104.208V472.262H105.684ZM115.02 472.262C115.138 472.262 115.236 472.272 115.315 472.291C115.61 472.331 115.758 472.567 115.758 473H108.466V472.262C109.135 472.262 109.617 472.213 109.912 472.114C110.424 471.937 110.68 471.396 110.68 470.491V461.191H108.466V460.453H112.746L112.864 463.376C113.12 462.786 113.465 462.254 113.898 461.782C114.823 460.778 115.876 460.276 117.056 460.276C117.234 460.276 117.421 460.296 117.617 460.335C118.523 460.532 118.975 461.073 118.975 461.959C118.975 462.077 118.956 462.195 118.916 462.313C118.759 462.884 118.385 463.169 117.795 463.169C117.676 463.169 117.558 463.15 117.44 463.11C117.165 463.032 116.87 462.717 116.555 462.166C116.279 461.674 115.974 461.428 115.639 461.428C115.344 461.447 114.98 461.664 114.547 462.077C113.445 463.16 112.894 464.596 112.894 466.387V472.262H115.02ZM130.968 473.295C129.591 473.276 128.784 472.39 128.547 470.638C128.37 471.052 128.105 471.445 127.75 471.819C126.766 472.803 125.556 473.295 124.119 473.295C123.529 473.295 122.968 473.187 122.436 472.97C121.118 472.419 120.459 471.396 120.459 469.9C120.459 469.467 120.518 469.064 120.636 468.69C121.305 466.761 123.952 465.797 128.577 465.797V463.937C128.518 462.028 127.563 461.014 125.713 460.896C124.926 460.896 124.346 461.142 123.972 461.634C123.873 461.772 123.686 462.205 123.411 462.933C123.194 463.504 122.86 463.789 122.407 463.789C122.309 463.789 122.21 463.779 122.112 463.76C121.541 463.661 121.256 463.307 121.256 462.697C121.256 462.362 121.374 462.028 121.61 461.693C122.358 460.67 123.834 460.158 126.038 460.158C126.215 460.158 126.392 460.158 126.569 460.158C129.384 460.316 130.791 461.802 130.791 464.616V470.845C130.811 471.829 131.076 472.341 131.588 472.38C132.218 472.36 132.602 471.632 132.739 470.195L133.507 470.225C133.507 470.323 133.497 470.432 133.478 470.55C133.32 472.38 132.484 473.295 130.968 473.295ZM125.093 472.114C125.526 472.114 125.969 472.016 126.422 471.819C127.563 471.268 128.282 470.314 128.577 468.956V466.594C127.042 466.614 125.871 466.712 125.064 466.889C123.548 467.243 122.791 468.08 122.791 469.398C122.791 469.733 122.82 470.038 122.879 470.314C123.155 471.514 123.893 472.114 125.093 472.114ZM140.599 472.262C140.717 472.262 140.816 472.272 140.894 472.291C141.19 472.331 141.337 472.567 141.337 473H134.843V472.262C135.512 472.262 135.994 472.213 136.289 472.114C136.801 471.937 137.057 471.396 137.057 470.491V461.191H134.843V460.453H139.123L139.241 463.406C139.458 462.854 139.743 462.353 140.097 461.9C141.042 460.739 142.243 460.158 143.699 460.158C144.427 460.158 145.106 460.345 145.736 460.719C147.094 461.565 147.773 462.973 147.773 464.941V472.262H149.249C149.367 472.262 149.466 472.272 149.544 472.291C149.84 472.331 149.987 472.567 149.987 473H143.345V472.262C144.014 472.262 144.496 472.213 144.791 472.114C145.303 471.937 145.559 471.396 145.559 470.491V464.645C145.559 464.075 145.47 463.563 145.293 463.11C144.86 461.988 144.043 461.428 142.843 461.428C142.292 461.428 141.751 461.595 141.219 461.929C139.979 462.736 139.33 464.055 139.271 465.885V472.262H140.599ZM151.618 461.191V460.453H153.684V457.649L155.899 457.029V460.453H160.474V461.191H155.899V470.166C155.918 471.642 156.459 472.4 157.522 472.439C158.467 472.301 159.185 471.416 159.677 469.782L160.474 469.93C160.474 469.949 160.474 469.969 160.474 469.989C160.022 472.213 158.89 473.325 157.079 473.325C154.954 473.246 153.822 471.977 153.684 469.516V461.191H151.618ZM168.275 460.896C167.763 460.896 167.281 461.014 166.829 461.25C165.451 461.939 164.713 463.415 164.614 465.679L167.744 465.767C168.649 465.787 169.348 465.748 169.84 465.649C170.784 465.433 171.257 464.832 171.257 463.848C171.257 463.415 171.178 463.012 171.021 462.638C170.568 461.477 169.653 460.896 168.275 460.896ZM173.412 470.166C173.294 470.441 173.156 470.717 172.999 470.993C171.995 472.528 170.43 473.295 168.305 473.295C166.966 473.295 165.776 472.951 164.733 472.262C162.981 471.081 162.105 469.27 162.105 466.83C162.105 465.492 162.381 464.291 162.932 463.228C163.994 461.182 165.756 460.158 168.216 460.158C169.476 460.158 170.588 460.444 171.552 461.014C172.91 461.802 173.589 462.864 173.589 464.203C173.589 464.931 173.323 465.492 172.792 465.885C172.103 466.377 170.558 466.604 168.157 466.564L164.614 466.505C164.634 467.332 164.723 468.09 164.88 468.778C165.412 471.239 166.71 472.469 168.777 472.469C168.954 472.469 169.141 472.459 169.338 472.439C170.873 472.242 171.985 471.396 172.674 469.9L173.412 470.166ZM184.674 466.712C184.674 467.558 184.743 468.326 184.88 469.015C185.392 471.376 186.642 472.557 188.63 472.557C189.004 472.557 189.368 472.508 189.722 472.41C191.533 471.839 192.438 469.9 192.438 466.594C192.438 466.023 192.408 465.502 192.349 465.029C191.995 462.274 190.726 460.896 188.541 460.896C188.069 460.896 187.616 460.975 187.183 461.132C185.51 461.802 184.674 463.661 184.674 466.712ZM188.63 460.158C189.929 460.158 191.119 460.503 192.202 461.191C194.032 462.392 194.947 464.232 194.947 466.712C194.947 468.542 194.376 470.068 193.235 471.288C191.995 472.626 190.43 473.295 188.541 473.295C187.203 473.295 185.982 472.921 184.88 472.173C183.07 470.933 182.164 469.074 182.164 466.594C182.164 464.803 182.745 463.307 183.906 462.107C185.166 460.808 186.74 460.158 188.63 460.158Z" fill="black"/>
<path d="M75.1809 522.86C75.1809 521.561 75.4269 520.399 75.9189 519.376C76.962 517.231 78.8022 516.158 81.4394 516.158C82.5022 516.158 83.4862 516.384 84.3916 516.837C85.6708 517.487 86.3105 518.313 86.3105 519.317C86.3105 519.435 86.2908 519.563 86.2514 519.701C86.0743 520.291 85.6511 520.567 84.982 520.527C84.7458 520.508 84.5293 520.449 84.3325 520.35C84.0176 520.153 83.8011 519.661 83.683 518.874C83.624 518.54 83.5748 518.294 83.5354 518.136C83.3189 517.309 82.6793 516.896 81.6165 516.896C80.9277 516.896 80.2979 517.073 79.7272 517.428C78.3692 518.294 77.6902 520.016 77.6902 522.594C77.6902 524.05 77.9854 525.31 78.5758 526.373C79.3631 527.77 80.4554 528.469 81.8527 528.469C82.0102 528.469 82.1676 528.459 82.3251 528.439C83.9979 528.282 85.1985 527.426 85.9267 525.871L86.6942 526.136C86.5565 526.471 86.3695 526.806 86.1333 527.14C85.0902 528.577 83.5453 529.295 81.4985 529.295C80.1208 529.295 78.8907 528.931 77.8083 528.203C76.0567 527.022 75.1809 525.241 75.1809 522.86ZM90.8343 522.712C90.8343 523.558 90.9032 524.326 91.041 525.015C91.5527 527.376 92.8024 528.557 94.7902 528.557C95.1641 528.557 95.5282 528.508 95.8825 528.41C97.6932 527.839 98.5985 525.9 98.5985 522.594C98.5985 522.023 98.569 521.502 98.5099 521.029C98.1557 518.274 96.8862 516.896 94.7016 516.896C94.2293 516.896 93.7766 516.975 93.3437 517.132C91.6708 517.802 90.8343 519.661 90.8343 522.712ZM94.7902 516.158C96.0892 516.158 97.2799 516.503 98.3623 517.191C100.193 518.392 101.108 520.232 101.108 522.712C101.108 524.542 100.537 526.068 99.3956 527.288C98.1557 528.626 96.591 529.295 94.7016 529.295C93.3633 529.295 92.1431 528.921 91.041 528.173C89.2303 526.933 88.325 525.074 88.325 522.594C88.325 520.803 88.9056 519.307 90.0668 518.107C91.3264 516.808 92.9008 516.158 94.7902 516.158ZM109.233 528.262C109.332 528.262 109.43 528.272 109.529 528.291C109.824 528.351 109.971 528.587 109.971 529H103.477V528.262C104.146 528.262 104.628 528.213 104.923 528.114C105.435 527.937 105.691 527.396 105.691 526.491V517.191H103.477V516.453H107.757L107.875 519.406C108.072 518.874 108.338 518.392 108.672 517.959C109.597 516.758 110.768 516.158 112.185 516.158C112.559 516.158 112.923 516.227 113.278 516.365C114.478 516.817 115.256 517.821 115.61 519.376C115.767 518.982 115.964 518.608 116.2 518.254C117.106 516.857 118.306 516.158 119.802 516.158C120.491 516.158 121.13 516.335 121.721 516.69C123.04 517.496 123.699 518.913 123.699 520.941V528.262H125.204C125.323 528.262 125.421 528.272 125.5 528.291C125.795 528.331 125.942 528.567 125.942 529H119.418V528.262C120.087 528.262 120.56 528.213 120.835 528.114C121.268 527.937 121.485 527.396 121.485 526.491V520.645C121.485 520.016 121.386 519.455 121.19 518.963C120.776 517.92 120.068 517.398 119.064 517.398C118.69 517.398 118.296 517.496 117.883 517.693C116.801 518.264 116.102 519.268 115.787 520.704V520.941V528.262H117.116C117.234 528.262 117.332 528.272 117.411 528.291C117.706 528.331 117.854 528.567 117.854 529H111.506V528.262C112.176 528.262 112.648 528.213 112.923 528.114C113.356 527.937 113.573 527.396 113.573 526.491V520.645C113.573 520.055 113.494 519.524 113.337 519.051C112.963 517.969 112.284 517.428 111.3 517.428C110.768 517.428 110.237 517.624 109.706 518.018C108.564 518.864 107.964 520.153 107.905 521.885V528.262H109.233ZM134.223 522.86C134.223 521.561 134.469 520.399 134.961 519.376C136.004 517.231 137.844 516.158 140.481 516.158C141.544 516.158 142.528 516.384 143.433 516.837C144.713 517.487 145.352 518.313 145.352 519.317C145.352 519.435 145.333 519.563 145.293 519.701C145.116 520.291 144.693 520.567 144.024 520.527C143.788 520.508 143.571 520.449 143.374 520.35C143.059 520.153 142.843 519.661 142.725 518.874C142.666 518.54 142.617 518.294 142.577 518.136C142.361 517.309 141.721 516.896 140.658 516.896C139.969 516.896 139.34 517.073 138.769 517.428C137.411 518.294 136.732 520.016 136.732 522.594C136.732 524.05 137.027 525.31 137.618 526.373C138.405 527.77 139.497 528.469 140.895 528.469C141.052 528.469 141.209 528.459 141.367 528.439C143.04 528.282 144.24 527.426 144.968 525.871L145.736 526.136C145.598 526.471 145.411 526.806 145.175 527.14C144.132 528.577 142.587 529.295 140.54 529.295C139.163 529.295 137.933 528.931 136.85 528.203C135.098 527.022 134.223 525.241 134.223 522.86ZM157.729 529.295C156.351 529.276 155.544 528.39 155.308 526.638C155.131 527.052 154.865 527.445 154.511 527.819C153.527 528.803 152.317 529.295 150.88 529.295C150.289 529.295 149.729 529.187 149.197 528.97C147.879 528.419 147.219 527.396 147.219 525.9C147.219 525.467 147.278 525.064 147.396 524.69C148.065 522.761 150.713 521.797 155.338 521.797V519.937C155.279 518.028 154.324 517.014 152.474 516.896C151.687 516.896 151.106 517.142 150.732 517.634C150.634 517.772 150.447 518.205 150.171 518.933C149.955 519.504 149.62 519.789 149.168 519.789C149.069 519.789 148.971 519.779 148.872 519.76C148.302 519.661 148.016 519.307 148.016 518.697C148.016 518.362 148.134 518.028 148.371 517.693C149.118 516.67 150.594 516.158 152.799 516.158C152.976 516.158 153.153 516.158 153.33 516.158C156.145 516.316 157.552 517.802 157.552 520.616V526.845C157.571 527.829 157.837 528.341 158.349 528.38C158.979 528.36 159.362 527.632 159.5 526.195L160.268 526.225C160.268 526.323 160.258 526.432 160.238 526.55C160.081 528.38 159.244 529.295 157.729 529.295ZM151.854 528.114C152.287 528.114 152.73 528.016 153.183 527.819C154.324 527.268 155.042 526.314 155.338 524.956V522.594C153.802 522.614 152.631 522.712 151.825 522.889C150.309 523.243 149.551 524.08 149.551 525.398C149.551 525.733 149.581 526.038 149.64 526.314C149.915 527.514 150.654 528.114 151.854 528.114ZM168.216 528.262C168.334 528.262 168.433 528.272 168.511 528.291C168.806 528.331 168.954 528.567 168.954 529H161.662V528.262C162.331 528.262 162.814 528.213 163.109 528.114C163.621 527.937 163.876 527.396 163.876 526.491V517.191H161.662V516.453H165.943L166.061 519.376C166.317 518.786 166.661 518.254 167.094 517.782C168.019 516.778 169.072 516.276 170.253 516.276C170.43 516.276 170.617 516.296 170.814 516.335C171.719 516.532 172.172 517.073 172.172 517.959C172.172 518.077 172.152 518.195 172.113 518.313C171.955 518.884 171.581 519.169 170.991 519.169C170.873 519.169 170.755 519.15 170.637 519.11C170.361 519.032 170.066 518.717 169.751 518.166C169.476 517.674 169.171 517.428 168.836 517.428C168.541 517.447 168.177 517.664 167.744 518.077C166.642 519.16 166.091 520.596 166.091 522.387V528.262H168.216ZM176.46 520.823C176.479 523.479 177.463 524.828 179.412 524.867C181.321 524.847 182.295 523.499 182.334 520.823C182.315 518.244 181.341 516.936 179.412 516.896C177.483 516.916 176.499 518.225 176.46 520.823ZM179.441 516.158C180.465 516.158 181.419 516.384 182.305 516.837C182.423 516.463 182.59 516.119 182.807 515.804C183.377 514.977 184.125 514.564 185.05 514.564C185.267 514.564 185.483 514.603 185.7 514.682C186.271 514.899 186.556 515.312 186.556 515.922C186.477 516.434 186.192 516.749 185.7 516.867C185.523 516.867 185.326 516.768 185.109 516.571C184.795 516.276 184.499 516.129 184.224 516.129C184.145 516.129 184.066 516.138 183.988 516.158C183.496 516.276 183.161 516.65 182.984 517.28C184.106 518.166 184.676 519.346 184.696 520.823C184.696 521.984 184.322 522.987 183.574 523.834C182.531 525.015 181.134 525.605 179.382 525.605L176.784 525.576C176.627 525.576 176.479 525.585 176.342 525.605C175.692 525.743 175.367 526.068 175.367 526.579C175.387 527.307 175.85 527.701 176.755 527.76L182.128 527.878C182.403 527.878 182.669 527.898 182.925 527.937C184.873 528.193 185.847 529.167 185.847 530.86C185.847 531.411 185.69 531.932 185.375 532.424C184.411 533.881 182.433 534.609 179.441 534.609C178.26 534.609 177.267 534.432 176.46 534.078C175.18 533.546 174.541 532.739 174.541 531.657C174.541 530.948 174.865 530.25 175.515 529.561C174.688 529.049 174.265 528.272 174.246 527.229C174.246 526.973 174.275 526.717 174.334 526.461C174.649 525.379 175.436 524.837 176.696 524.837C176.558 524.759 176.42 524.67 176.282 524.572C174.826 523.588 174.098 522.348 174.098 520.852C174.098 519.711 174.472 518.717 175.22 517.87C176.263 516.729 177.67 516.158 179.441 516.158ZM179.441 533.842C180.366 533.842 181.222 533.743 182.01 533.546C183.624 533.153 184.43 532.523 184.43 531.657C184.43 531.421 184.401 531.224 184.342 531.067C184.106 530.417 183.25 530.082 181.773 530.063L177.227 530.004C176.971 530.004 176.647 529.964 176.253 529.886C175.8 530.417 175.564 530.948 175.544 531.48C175.544 531.755 175.613 532.031 175.751 532.306C176.263 533.33 177.493 533.842 179.441 533.842ZM198.667 529.295C197.289 529.276 196.482 528.39 196.246 526.638C196.069 527.052 195.803 527.445 195.449 527.819C194.465 528.803 193.255 529.295 191.818 529.295C191.227 529.295 190.667 529.187 190.135 528.97C188.817 528.419 188.157 527.396 188.157 525.9C188.157 525.467 188.216 525.064 188.334 524.69C189.003 522.761 191.651 521.797 196.276 521.797V519.937C196.217 518.028 195.262 517.014 193.412 516.896C192.625 516.896 192.044 517.142 191.67 517.634C191.572 517.772 191.385 518.205 191.109 518.933C190.893 519.504 190.558 519.789 190.106 519.789C190.007 519.789 189.909 519.779 189.81 519.76C189.24 519.661 188.954 519.307 188.954 518.697C188.954 518.362 189.072 518.028 189.309 517.693C190.056 516.67 191.533 516.158 193.737 516.158C193.914 516.158 194.091 516.158 194.268 516.158C197.083 516.316 198.49 517.802 198.49 520.616V526.845C198.509 527.829 198.775 528.341 199.287 528.38C199.917 528.36 200.3 527.632 200.438 526.195L201.206 526.225C201.206 526.323 201.196 526.432 201.176 526.55C201.019 528.38 200.182 529.295 198.667 529.295ZM192.792 528.114C193.225 528.114 193.668 528.016 194.121 527.819C195.262 527.268 195.98 526.314 196.276 524.956V522.594C194.741 522.614 193.569 522.712 192.763 522.889C191.247 523.243 190.489 524.08 190.489 525.398C190.489 525.733 190.519 526.038 190.578 526.314C190.854 527.514 191.592 528.114 192.792 528.114ZM214.564 528.262C214.682 528.262 214.78 528.272 214.859 528.291C215.154 528.331 215.302 528.567 215.302 529H208.659V528.262C209.328 528.262 209.811 528.213 210.106 528.114C210.618 527.937 210.873 527.396 210.873 526.491V510.549H208.659V509.811H213.088V519.287C213.304 518.717 213.619 518.205 214.032 517.752C215.016 516.69 216.236 516.158 217.693 516.158C218.323 516.158 218.913 516.296 219.464 516.571C220.881 517.339 221.59 518.795 221.59 520.941V528.262H223.066C223.184 528.262 223.282 528.272 223.361 528.291C223.656 528.331 223.804 528.567 223.804 529H217.309V528.262C217.978 528.262 218.451 528.213 218.726 528.114C219.159 527.937 219.376 527.396 219.376 526.491V520.941C219.376 520.291 219.267 519.701 219.051 519.169C218.579 518.048 217.742 517.487 216.542 517.487C215.99 517.487 215.459 517.654 214.947 517.988C213.707 518.795 213.088 520.094 213.088 521.885V528.262H214.564ZM228.564 522.712C228.564 523.558 228.633 524.326 228.771 525.015C229.282 527.376 230.532 528.557 232.52 528.557C232.894 528.557 233.258 528.508 233.612 528.41C235.423 527.839 236.328 525.9 236.328 522.594C236.328 522.023 236.298 521.502 236.239 521.029C235.885 518.274 234.616 516.896 232.431 516.896C231.959 516.896 231.506 516.975 231.073 517.132C229.4 517.802 228.564 519.661 228.564 522.712ZM232.52 516.158C233.819 516.158 235.009 516.503 236.092 517.191C237.922 518.392 238.837 520.232 238.837 522.712C238.837 524.542 238.267 526.068 237.125 527.288C235.885 528.626 234.321 529.295 232.431 529.295C231.093 529.295 229.873 528.921 228.771 528.173C226.96 526.933 226.055 525.074 226.055 522.594C226.055 520.803 226.635 519.307 227.796 518.107C229.056 516.808 230.63 516.158 232.52 516.158ZM247.819 528.262C247.937 528.262 248.035 528.272 248.114 528.291C248.409 528.331 248.557 528.567 248.557 529H241.265V528.262C241.934 528.262 242.417 528.213 242.712 528.114C243.223 527.937 243.479 527.396 243.479 526.491V517.191H241.265V516.453H245.546L245.664 519.376C245.92 518.786 246.264 518.254 246.697 517.782C247.622 516.778 248.675 516.276 249.856 516.276C250.033 516.276 250.22 516.296 250.417 516.335C251.322 516.532 251.775 517.073 251.775 517.959C251.775 518.077 251.755 518.195 251.716 518.313C251.558 518.884 251.184 519.169 250.594 519.169C250.476 519.169 250.358 519.15 250.24 519.11C249.964 519.032 249.669 518.717 249.354 518.166C249.079 517.674 248.773 517.428 248.439 517.428C248.144 517.447 247.78 517.664 247.347 518.077C246.244 519.16 245.693 520.596 245.693 522.387V528.262H247.819ZM263.768 529.295C262.39 529.276 261.583 528.39 261.347 526.638C261.17 527.052 260.904 527.445 260.55 527.819C259.566 528.803 258.355 529.295 256.919 529.295C256.328 529.295 255.767 529.187 255.236 528.97C253.917 528.419 253.258 527.396 253.258 525.9C253.258 525.467 253.317 525.064 253.435 524.69C254.104 522.761 256.751 521.797 261.376 521.797V519.937C261.317 518.028 260.363 517.014 258.513 516.896C257.726 516.896 257.145 517.142 256.771 517.634C256.673 517.772 256.486 518.205 256.21 518.933C255.994 519.504 255.659 519.789 255.206 519.789C255.108 519.789 255.01 519.779 254.911 519.76C254.34 519.661 254.055 519.307 254.055 518.697C254.055 518.362 254.173 518.028 254.409 517.693C255.157 516.67 256.633 516.158 258.838 516.158C259.015 516.158 259.192 516.158 259.369 516.158C262.183 516.316 263.591 517.802 263.591 520.616V526.845C263.61 527.829 263.876 528.341 264.388 528.38C265.017 528.36 265.401 527.632 265.539 526.195L266.306 526.225C266.306 526.323 266.297 526.432 266.277 526.55C266.12 528.38 265.283 529.295 263.768 529.295ZM257.893 528.114C258.326 528.114 258.769 528.016 259.221 527.819C260.363 527.268 261.081 526.314 261.376 524.956V522.594C259.841 522.614 258.67 522.712 257.863 522.889C256.348 523.243 255.59 524.08 255.59 525.398C255.59 525.733 255.62 526.038 255.679 526.314C255.954 527.514 256.692 528.114 257.893 528.114ZM261.996 511.789C261.78 511.986 261.396 512.261 260.845 512.616C259.172 513.659 258.1 514.367 257.627 514.741L257.155 514.239C257.647 513.708 258.178 512.999 258.749 512.114C259.536 510.874 260.009 510.175 260.166 510.018C260.422 509.782 260.707 509.654 261.022 509.634C261.199 509.634 261.386 509.683 261.583 509.782C262.114 510.057 262.38 510.451 262.38 510.962C262.36 511.238 262.233 511.513 261.996 511.789ZM274.255 528.262C274.373 528.262 274.471 528.272 274.55 528.291C274.845 528.331 274.993 528.567 274.993 529H267.701V528.262C268.37 528.262 268.852 528.213 269.148 528.114C269.659 527.937 269.915 527.396 269.915 526.491V517.191H267.701V516.453H271.982L272.1 519.376C272.356 518.786 272.7 518.254 273.133 517.782C274.058 516.778 275.111 516.276 276.292 516.276C276.469 516.276 276.656 516.296 276.853 516.335C277.758 516.532 278.211 517.073 278.211 517.959C278.211 518.077 278.191 518.195 278.152 518.313C277.994 518.884 277.62 519.169 277.03 519.169C276.912 519.169 276.794 519.15 276.676 519.11C276.4 519.032 276.105 518.717 275.79 518.166C275.514 517.674 275.209 517.428 274.875 517.428C274.58 517.447 274.215 517.664 273.783 518.077C272.68 519.16 272.129 520.596 272.129 522.387V528.262H274.255ZM285.598 528.262C285.697 528.262 285.795 528.272 285.893 528.291C286.189 528.331 286.336 528.567 286.336 529H279.546V528.262C280.215 528.262 280.698 528.223 280.993 528.144C281.603 527.947 281.908 527.396 281.908 526.491V517.191H279.546V516.453H284.122V528.262H285.598ZM284.476 512.143C284.476 512.379 284.427 512.606 284.329 512.822C284.053 513.452 283.571 513.767 282.882 513.767C282.666 513.767 282.449 513.728 282.233 513.649C281.583 513.373 281.259 512.871 281.259 512.143C281.259 511.907 281.308 511.681 281.406 511.464C281.701 510.834 282.193 510.52 282.882 510.52C283.099 510.52 283.325 510.569 283.561 510.667C284.171 510.962 284.476 511.454 284.476 512.143ZM299.067 529.295C297.689 529.276 296.882 528.39 296.646 526.638C296.469 527.052 296.203 527.445 295.849 527.819C294.865 528.803 293.655 529.295 292.218 529.295C291.628 529.295 291.067 529.187 290.535 528.97C289.217 528.419 288.557 527.396 288.557 525.9C288.557 525.467 288.616 525.064 288.735 524.69C289.404 522.761 292.051 521.797 296.676 521.797V519.937C296.617 518.028 295.662 517.014 293.812 516.896C293.025 516.896 292.444 517.142 292.07 517.634C291.972 517.772 291.785 518.205 291.51 518.933C291.293 519.504 290.959 519.789 290.506 519.789C290.407 519.789 290.309 519.779 290.211 519.76C289.64 519.661 289.355 519.307 289.355 518.697C289.355 518.362 289.473 518.028 289.709 517.693C290.457 516.67 291.933 516.158 294.137 516.158C294.314 516.158 294.491 516.158 294.668 516.158C297.483 516.316 298.89 517.802 298.89 520.616V526.845C298.91 527.829 299.175 528.341 299.687 528.38C300.317 528.36 300.701 527.632 300.838 526.195L301.606 526.225C301.606 526.323 301.596 526.432 301.576 526.55C301.419 528.38 300.583 529.295 299.067 529.295ZM293.192 528.114C293.625 528.114 294.068 528.016 294.521 527.819C295.662 527.268 296.381 526.314 296.676 524.956V522.594C295.141 522.614 293.97 522.712 293.163 522.889C291.647 523.243 290.89 524.08 290.89 525.398C290.89 525.733 290.919 526.038 290.978 526.314C291.254 527.514 291.992 528.114 293.192 528.114Z" fill="black"/>
<line x1="414.001" y1="537.5" x2="785.001" y2="538.5" stroke="black"/>
<line x1="74.0007" y1="328.5" x2="785.001" y2="329.497" stroke="black"/>
<line x1="74.0007" y1="421.5" x2="785.001" y2="422.497" stroke="black"/>
<line x1="253.001" y1="485.5" x2="785.001" y2="486.513" stroke="black"/>
<path d="M886.5 321.5L914 413L787.5 847H737L886.5 321.5Z" fill="#A31E23"/>
<path d="M1109 0H1197V316.5L1132 96L1109 0Z" fill="#FF9D00"/>
<path d="M859.5 587.5L912.5 410.5L1037 847H785L859.5 587.5Z" fill="#4BC6E8"/>
<path d="M795 0H1109L1197 310.5V847H1036L927.5 463.5L795 0Z" fill="#2A8BEA"/>
<defs>
<filter id="filter0_bd_11_4" x="71.0858" y="99.8764" width="97.2669" height="63.1002" filterUnits="userSpaceOnUse" color-interpolation-filters="sRGB">
<feFlood flood-opacity="0" result="BackgroundImageFix"/>
<feGaussianBlur in="BackgroundImageFix" stdDeviation="1.58511"/>
<feComposite in2="SourceAlpha" operator="in" result="effect1_backgroundBlur_11_4"/>
<feColorMatrix in="SourceAlpha" type="matrix" values="0 0 0 0 0 0 0 0 0 0 0 0 0 0 0 0 0 0 127 0" result="hardAlpha"/>
<feOffset dy="3.17021"/>
<feGaussianBlur stdDeviation="1.58511"/>
<feComposite in2="hardAlpha" operator="out"/>
<feColorMatrix type="matrix" values="0 0 0 0 0 0 0 0 0 0 0 0 0 0 0 0 0 0 0.25 0"/>
<feBlend mode="normal" in2="effect1_backgroundBlur_11_4" result="effect2_dropShadow_11_4"/>
<feBlend mode="normal" in="SourceGraphic" in2="effect2_dropShadow_11_4" result="shape"/>
</filter>
<filter id="filter1_b_11_4" x="71.0858" y="105.834" width="62.9334" height="53.9727" filterUnits="userSpaceOnUse" color-interpolation-filters="sRGB">
<feFlood flood-opacity="0" result="BackgroundImageFix"/>
<feGaussianBlur in="BackgroundImageFix" stdDeviation="1.58511"/>
<feComposite in2="SourceAlpha" operator="in" result="effect1_backgroundBlur_11_4"/>
<feBlend mode="normal" in="SourceGraphic" in2="effect1_backgroundBlur_11_4" result="shape"/>
</filter>
<filter id="filter2_b_11_4" x="106.506" y="99.8764" width="61.8464" height="55.2717" filterUnits="userSpaceOnUse" color-interpolation-filters="sRGB">
<feFlood flood-opacity="0" result="BackgroundImageFix"/>
<feGaussianBlur in="BackgroundImageFix" stdDeviation="1.58511"/>
<feComposite in2="SourceAlpha" operator="in" result="effect1_backgroundBlur_11_4"/>
<feBlend mode="normal" in="SourceGraphic" in2="effect1_backgroundBlur_11_4" result="shape"/>
</filter>
</defs>
</svg>
